<?xml version="1.0" encoding="UTF-8" standalone="no"?>
<?xml-stylesheet href="svg.css" type="text/css"?>

<!-- Created with Inkscape (http://www.inkscape.org/) -->

<svg
   xmlns:dc="http://purl.org/dc/elements/1.1/"
   xmlns:cc="http://creativecommons.org/ns#"
   xmlns:rdf="http://www.w3.org/1999/02/22-rdf-syntax-ns#"
   xmlns:svg="http://www.w3.org/2000/svg"
   xmlns="http://www.w3.org/2000/svg"
   version="1.1"
   viewBox="0 0 42 42"
   id="Layer_1"
   xml:space="preserve"><metadata
   id="metadata9"><rdf:RDF><cc:Work
       rdf:about=""><dc:format>image/svg+xml</dc:format><dc:type
         rdf:resource="http://purl.org/dc/dcmitype/StillImage" /><dc:title></dc:title></cc:Work></rdf:RDF></metadata><defs
   id="defs7" />
<path
   d="m 39.5,22.5 v -3 c 0,-1.48 -0.43,-2 -2,-2 h -13 v -13 c 0,-1.48 -0.49,-2 -2,-2 h -3 c -1.55,0 -2,0.52 -2,2 v 13 h -14 c -1.48,0 -2,0.49 -2,2 v 3 c 0,1.55 0.52,2 2,2 h 14 v 14 c 0,1.51 0.48,2 2,2 h 3 c 1.48,0 2,-0.43 2,-2 v -14 h 13 c 1.51,0 2,-0.48 2,-2 z"
   id="path3" />
</svg>