<?xml version="1.0" encoding="UTF-8" standalone="no"?>

<!-- Created with Inkscape (http://www.inkscape.org/) -->

<svg
   xmlns:dc="http://purl.org/dc/elements/1.1/"
   xmlns:cc="http://creativecommons.org/ns#"
   xmlns:rdf="http://www.w3.org/1999/02/22-rdf-syntax-ns#"
   xmlns:svg="http://www.w3.org/2000/svg"
   xmlns="http://www.w3.org/2000/svg"
   version="1.1"
   width="42"
   height="42"
   id="svg3004"
   xml:space="preserve"><metadata
     id="metadata3010"><rdf:RDF><cc:Work
         rdf:about=""><dc:format>image/svg+xml</dc:format><dc:type
           rdf:resource="http://purl.org/dc/dcmitype/StillImage" /><dc:title></dc:title></cc:Work></rdf:RDF></metadata><defs
     id="defs3008"><clipPath
       id="clipPath3018"><path
         d="M 0,39 39,39 39,0 0,0 0,39 z"
         id="path3020" /></clipPath></defs><g
     transform="matrix(1.25,0,0,-1.25,0,42)"
     id="g3012"><rect
       width="2.5288897"
       height="9.3930187"
       rx="0.55261987"
       ry="0.67175609"
       x="15.534979"
       y="-31.747334"
       transform="scale(1,-1)"
       id="rect3058"
       style="fill:#000000;fill-rule:evenodd;stroke:#000000;stroke-width:0;stroke-linecap:butt;stroke-linejoin:miter;stroke-miterlimit:4;stroke-opacity:1;stroke-dasharray:none" /><rect
       width="2.5288897"
       height="9.3930187"
       rx="0.55261987"
       ry="0.67175609"
       x="15.534979"
       y="-11.245258"
       transform="scale(1,-1)"
       id="rect3832"
       style="fill:#000000;fill-rule:evenodd;stroke:#000000;stroke-width:0;stroke-linecap:butt;stroke-linejoin:miter;stroke-miterlimit:4;stroke-opacity:1;stroke-dasharray:none" /><rect
       width="2.5288899"
       height="9.3930187"
       rx="0.55261993"
       ry="0.67175603"
       x="-18.063868"
       y="-31.74733"
       transform="matrix(0,-1,-1,0,0,0)"
       id="rect3834"
       style="fill:#000000;fill-rule:evenodd;stroke:#000000;stroke-width:0;stroke-linecap:butt;stroke-linejoin:miter;stroke-miterlimit:4;stroke-opacity:1;stroke-dasharray:none" /><rect
       width="2.5288899"
       height="9.3930187"
       rx="0.55261993"
       ry="0.67175603"
       x="-18.063868"
       y="-11.245258"
       transform="matrix(0,-1,-1,0,0,0)"
       id="rect3836"
       style="fill:#000000;fill-rule:evenodd;stroke:#000000;stroke-width:0;stroke-linecap:butt;stroke-linejoin:miter;stroke-miterlimit:4;stroke-opacity:1;stroke-dasharray:none" /><rect
       width="2.4122839"
       height="8.9599113"
       rx="0.52713889"
       ry="0.6407817"
       x="-1.2064859"
       y="-38.016808"
       transform="matrix(0.70710678,-0.70710678,-0.70710678,-0.70710678,0,0)"
       id="rect3876"
       style="fill:#000000;fill-rule:evenodd;stroke:#000000;stroke-width:0;stroke-linecap:butt;stroke-linejoin:miter;stroke-miterlimit:4;stroke-opacity:1;stroke-dasharray:none" /><rect
       width="2.4122839"
       height="8.9599113"
       rx="0.52713889"
       ry="0.6407817"
       x="-1.2064859"
       y="-18.460075"
       transform="matrix(0.70710678,-0.70710678,-0.70710678,-0.70710678,0,0)"
       id="rect3878"
       style="fill:#000000;fill-rule:evenodd;stroke:#000000;stroke-width:0;stroke-linecap:butt;stroke-linejoin:miter;stroke-miterlimit:4;stroke-opacity:1;stroke-dasharray:none" /><rect
       width="2.4122839"
       height="8.9599113"
       rx="0.52713889"
       ry="0.6407817"
       x="-24.964281"
       y="-14.258321"
       transform="matrix(-0.70710678,-0.70710678,-0.70710678,0.70710678,0,0)"
       id="rect3880"
       style="fill:#000000;fill-rule:evenodd;stroke:#000000;stroke-width:0;stroke-linecap:butt;stroke-linejoin:miter;stroke-miterlimit:4;stroke-opacity:1;stroke-dasharray:none" /><rect
       width="2.4122839"
       height="8.9599113"
       rx="0.52713889"
       ry="0.6407817"
       x="-24.964281"
       y="5.298409"
       transform="matrix(-0.70710678,-0.70710678,-0.70710678,0.70710678,0,0)"
       id="rect3882"
       style="fill:#000000;fill-rule:evenodd;stroke:#000000;stroke-width:0;stroke-linecap:butt;stroke-linejoin:miter;stroke-miterlimit:4;stroke-opacity:1;stroke-dasharray:none" /></g></svg>